<?xml version="1.0" encoding="utf-8"?>
<!-- Generator: Adobe Illustrator 24.2.1, SVG Export Plug-In . SVG Version: 6.00 Build 0)  -->
<svg version="1.1" id="Layer_1" xmlns="http://www.w3.org/2000/svg" xmlns:xlink="http://www.w3.org/1999/xlink" x="0px" y="0px"
	 viewBox="0 0 510 430" style="enable-background:new 0 0 510 430;" xml:space="preserve">
<style type="text/css">
	.st0{fill:#2D374B;}
	.st1{fill:#FFFFFF;}
</style>
<g id="Logos_and_symbols">
	<g id="SYMBOL_VER_3">
	</g>
	<g id="SYMBOL_VER_3_3_">
	</g>
	<g id="SYMBOL_VER_4">
	</g>
	<g id="SYMBOL_VER_4_1_">
		<g id="SYMBOL_VER_4_3_">
		</g>
	</g>
	<g id="SYMBOL_VER_5_1_">
	</g>
	<g id="off_2_1_">
	</g>
	<g id="VER_3_1_">
		<g id="SYMBOL_VER_2_1_">
		</g>
	</g>
	<g id="VER_3">
		<g id="SYMBOL_VER_2">
		</g>
	</g>
	<g id="off_2">
	</g>
	<g id="SYMBOL_VER_5">
	</g>
	<g id="SYMBOL_VER_1">
	</g>
	<g id="SYMBOL_VER_1_1_">
	</g>
	<g id="SYMBOL_VER_1-1_3_">
	</g>
	<g id="SYMBOL_VER_1-1_2_">
	</g>
	<g id="SYMBOL_VER_1-1">
	</g>
	<g id="SYMBOL_VER_1-1_1_">
		<g id="_x31_-3">
		</g>
		<g id="Symbol_-_Original_14_">
		</g>
		<g id="Symbol_-_Original_13_">
		</g>
		<g id="Symbol_-_Original_6_">
		</g>
		<g id="Symbol_-_Original_4_">
		</g>
		<g id="One_color_version_-_White_3_">
			<g id="Symbol_-_Original_15_">
			</g>
		</g>
		<g id="One_color_version_-_White">
			<g id="Symbol_-_Original">
			</g>
		</g>
		<g id="Symbol_-_Monochromatic_3_">
			<g id="_x33__7_">
			</g>
		</g>
		<g id="Symbol_-_Monochromatic">
			<g id="_x33__3_">
			</g>
		</g>
		<g id="_x33__2_">
		</g>
		<g id="_x33__1_">
		</g>
		<g id="_x33_">
		</g>
		<g id="Symbol_-_Original_10_">
		</g>
		<g id="Symbol_-_Original_1_">
		</g>
		<g id="Symbol_-_Original_2_">
		</g>
		<g id="_x34__1_">
		</g>
		<g id="Symbol_-_Monochromatic_2_">
			<g id="_x33__6_">
			</g>
		</g>
		<g id="One_color_version_-_White_2_">
			<g id="Symbol_-_Original_11_">
			</g>
		</g>
		<g id="Symbol_-_Original_5_">
			<g id="Symbol_-_Original_12_">
			</g>
		</g>
		<g id="One_color_version_-_White_1_">
			<g id="Symbol_-_Original_9_">
			</g>
		</g>
	</g>
	<g id="SYMBOL_VER_1_2_">
		<g id="SYMBOL_VER_2_4_">
		</g>
		<g id="SYMBOL_VER_2-1-1_1_">
		</g>
		<g id="SYMBOL_VER_2-2-1_1_">
		</g>
		<g id="SYMBOL_VER_2-3-1_4_">
		</g>
		<g id="New_Symbol_1_">
			<g id="SYMBOL_VER_2-3-1_3_">
			</g>
		</g>
		<g id="New_Symbol">
			<g id="SYMBOL_VER_2-3-1_1_">
			</g>
		</g>
	</g>
	<g id="SYMBOL_VER_2_2_">
	</g>
	<g id="SYMBOL_VER_4_2_">
	</g>
	<g id="SYMBOL_VER_3_2_">
	</g>
	<g id="SYMBOL_VER_3_1_">
	</g>
	<g id="SYMBOL_VER_1-1-1_1_">
	</g>
	<g id="SYMBOL_VER_1-1-1">
	</g>
	<g id="SYMBOL_VER_1-1-1_2_2_">
	</g>
	<g id="SYMBOL_VER_1-1-1_2">
	</g>
	<g id="SYMBOL_VER_1-1-1_2_1_">
	</g>
	<g id="Symbol_-_Original_7_">
		<path class="st0" d="M296.9,197.8l23.7-40.2l63.8,99.3l0,19.1l-0.2-131.2c-0.2-3.2-1.9-6.1-4.6-7.9L264.7,71
			c-2.7-1.3-6.1-1.3-8.8,0c-0.4,0.2-0.7,0.4-1,0.6l-0.4,0.3l-111.5,64.6l-0.4,0.2c-0.6,0.3-1.1,0.6-1.6,1c-2.1,1.5-3.5,3.8-4,6.3
			c-0.1,0.4-0.1,0.8-0.1,1.2l0.2,106.9l59.4-92.1c7.5-12.2,23.8-16.1,38.9-15.9l17.8,0.5L148.5,312.2l12.3,7.1l105.9-174.7l46.8-0.2
			L207.9,323.5l44,25.3l5.3,3c2.2,0.9,4.8,0.9,7.1,0.1l116.5-67.5l-22.3,12.9L296.9,197.8z M305.9,327.9l-44.4-69.8l27.1-46l58.4,92
			L305.9,327.9z"/>
		<polygon class="st1" points="261.5,258.1 305.9,327.9 347,304.1 288.6,212.1 		"/>
		<path class="st1" d="M384.4,276.1l0-19.1l-63.8-99.3l-23.7,40.2l61.6,99.6l22.3-12.9c2.2-1.8,3.5-4.4,3.6-7.2L384.4,276.1z"/>
		<path class="st1" d="M117.1,294.1l31.4,18.1l104.6-167.8l-17.8-0.5c-15.1-0.2-31.4,3.7-38.9,15.9L137.1,252l-20,30.7L117.1,294.1
			L117.1,294.1z"/>
		<polygon class="st1" points="313.5,144.4 266.7,144.6 160.8,319.3 197.8,340.6 207.9,323.5 		"/>
		<path class="st1" d="M404.1,144.2c-0.4-9.8-5.7-18.7-14-24L273.7,53.3c-8.2-4.1-18.5-4.1-26.7,0c-1,0.5-113.1,65.5-113.1,65.5
			c-1.6,0.7-3,1.6-4.5,2.6c-7.4,5.3-11.9,13.6-12.4,22.6v138.6l20-30.7L136.9,145c0-0.4,0.1-0.8,0.1-1.2c0.5-2.5,1.9-4.8,4-6.3
			c0.5-0.4,114.6-66.4,115-66.6c2.7-1.3,6.1-1.4,8.8,0L379.6,137c2.7,1.7,4.4,4.7,4.6,7.9v132.4c-0.1,2.8-1.2,5.4-3.4,7.2
			l-22.3,12.9l-11.5,6.7l-41.1,23.8L264.3,352c-2.2,0.8-4.9,0.8-7.1-0.1l-49.3-28.3l-10.1,17.1l44.3,25.5c1.5,0.8,2.8,1.6,3.8,2.2
			c1.7,0.9,2.8,1.6,3.2,1.7c3.1,1.5,7.7,2.4,11.8,2.4c3.7,0,7.4-0.7,10.8-2l120.9-70c6.9-5.4,11-13.5,11.4-22.3V144.2z"/>
	</g>
	<g id="Symbol_-_Original_8_">
	</g>
	<g id="SYMBOL_VER_2-1-1">
	</g>
	<g id="SYMBOL_VER_2-2-1">
	</g>
	<g id="SYMBOL_VER_2-3-1">
	</g>
	<g id="SYMBOL_VER_5-1_1_">
	</g>
	<g id="SYMBOL_VER_5-1">
	</g>
	<g id="SYMBOL_VER_5-2_1_">
	</g>
	<g id="SYMBOL_VER_5-2">
	</g>
	<g id="Symbol_-_Monochromatic_1_">
		<g id="_x33__4_">
		</g>
	</g>
</g>
</svg>
