<?xml version="1.0" encoding="utf-8"?>
<!-- Generator: Adobe Illustrator 24.2.1, SVG Export Plug-In . SVG Version: 6.00 Build 0)  -->
<svg version="1.1" id="Layer_1" xmlns="http://www.w3.org/2000/svg" xmlns:xlink="http://www.w3.org/1999/xlink" x="0px" y="0px"
	 viewBox="0 0 513 290" style="enable-background:new 0 0 513 290;" xml:space="preserve">
<style type="text/css">
	.st0{fill:#FFFFFF;}
</style>
<g id="页面-1">
	<g id="画板备份-9" transform="translate(-1184.000000, -235.000000)">
		<g id="编组-2" transform="translate(1184.000000, 235.000000)">
			<g id="编组">
				<path id="Clip-4" class="st0" d="M251.2,188.3c8.8-11.7,14-26.3,14.3-42.1l0-1.2h8.9c0-24.9,19.9-45,44.5-45
					c24.6,0,44.5,20.1,44.5,45c0,24.9-19.9,45-44.5,45c-16.4,0-30.8-9-38.5-22.3c-3.4,13.1-9.5,24.9-17.8,35
					c14.5,14.4,34.4,23.3,56.3,23.3c44.3,0,80.2-36.3,80.2-81S363.3,64,319,64c-44.3,0-80.2,36.3-80.2,81
					C238.8,160.9,243.4,175.8,251.2,188.3z"/>
				<path id="形状结合_1_" class="st0" d="M274.2,145c0,44.7-35.9,81-80.2,81c-44.3,0-80.2-36.3-80.2-81s35.9-81,80.2-81
					c21.9,0,41.8,8.9,56.3,23.3c-8.3,10-14.5,21.9-17.8,35C224.8,109,210.4,100,194,100c-24.6,0-44.5,20.1-44.5,45
					c0,24.9,19.9,45,44.5,45c24.6,0,44.5-20.1,44.5-45l0,0H274.2z"/>
			</g>
		</g>
	</g>
</g>
</svg>
