<?xml version="1.0" encoding="utf-8"?>
<!-- Generator: Adobe Illustrator 24.2.1, SVG Export Plug-In . SVG Version: 6.00 Build 0)  -->
<svg version="1.1" id="Layer_1" xmlns="http://www.w3.org/2000/svg" xmlns:xlink="http://www.w3.org/1999/xlink" x="0px" y="0px"
	 viewBox="0 0 88 135.9" style="enable-background:new 0 0 88 135.9;" xml:space="preserve">
<style type="text/css">
	.st0{fill:#FFFFFF;}
</style>
<path class="st0" d="M57.8,41.8c0-19.5-9.4-36.3-16.6-41.8c0,0-0.5-0.3-0.5,0.5c-0.6,37.7-19.7,48-30.3,61.7
	c-24.3,31.8-1.7,66.6,21.3,73c12.9,3.6-3-6.4-5-27.4C24.3,82.3,57.8,62.9,57.8,41.8"/>
<path class="st0" d="M70.4,54.7c-0.1-0.1-0.3-0.1-0.5,0c0,0,0,0-0.1,0.1c-0.4,4.7-5.6,14.9-12.1,24.2c-22.1,31.6-9.5,46.8-2.4,55
	c4.1,4.8,0,0,10.3-4.9c0.8-0.4,20-10.6,22.1-33.7C89.8,72.9,75.5,58.8,70.4,54.7"/>
</svg>
