<?xml version="1.0" encoding="utf-8"?>
<!-- Generator: Adobe Illustrator 24.2.1, SVG Export Plug-In . SVG Version: 6.00 Build 0)  -->
<svg version="1.1" id="Layer_1" xmlns="http://www.w3.org/2000/svg" xmlns:xlink="http://www.w3.org/1999/xlink" x="0px" y="0px"
	 viewBox="0 0 212 212" style="enable-background:new 0 0 212 212;" xml:space="preserve">
<style type="text/css">
	.st0{fill:#FFFFFF;}
</style>
<g id="Path-raw">
	<circle id="Oval" class="st0" cx="106" cy="48" r="48"/>
	<circle id="Oval-Copy" class="st0" cx="106" cy="164" r="48"/>
	<circle id="Oval-Copy-2" class="st0" cx="164" cy="106" r="48"/>
	<circle id="Oval-Copy-3" class="st0" cx="48" cy="106" r="48"/>
	<path id="Combined-Shape" class="st0" d="M94.7,94.7c-17.4-4.2-31.1-17.9-35.3-35.3C76.8,63.7,90.4,77.3,94.7,94.7z"/>
	<path id="Combined-Shape-2" class="st0" d="M59.3,152.7c4.2-17.4,17.9-31.1,35.3-35.3C90.3,134.8,76.7,148.4,59.3,152.7z"/>
	<path id="Combined-Shape-3" class="st0" d="M117.3,117.3c17.4,4.2,31.1,17.9,35.3,35.3C135.2,148.3,121.6,134.7,117.3,117.3z"/>
	<path id="Combined-Shape-4" class="st0" d="M152.7,59.3c-4.2,17.4-17.9,31.1-35.3,35.3C121.7,77.2,135.3,63.6,152.7,59.3z"/>
</g>
</svg>
