<?xml version="1.0" encoding="utf-8"?>
<!-- Generator: Adobe Illustrator 24.2.1, SVG Export Plug-In . SVG Version: 6.00 Build 0)  -->
<svg version="1.1" id="Layer_1" xmlns="http://www.w3.org/2000/svg" xmlns:xlink="http://www.w3.org/1999/xlink" x="0px" y="0px"
	 viewBox="0 0 180 179.5" style="enable-background:new 0 0 180 179.5;" xml:space="preserve">
<style type="text/css">
	.st0{fill:url(#Shape_1_);}
</style>
<linearGradient id="Shape_1_" gradientUnits="userSpaceOnUse" x1="0" y1="89.7534" x2="180" y2="89.7534">
	<stop  offset="0" style="stop-color:#FFFFFF"/>
	<stop  offset="1" style="stop-color:#FFFFFF"/>
</linearGradient>
<path id="Shape" class="st0" d="M141.2,0c-21.4,0-38.8,17.3-38.8,38.7v42.9c-4,0.3-8.1,0.4-12.3,0.4s-8.3,0.2-12.3,0.4V38.7
	c-0.3-21.4-18-38.6-39.5-38.2C17.2,0.8,0.3,17.7,0,38.7v102.6c0.3,21.4,18,38.6,39.5,38.2c21-0.3,37.9-17.2,38.2-38.2V98.4
	c4-0.3,8.1-0.4,12.3-0.4s8.3-0.2,12.3-0.4v43.8c0.3,21.4,18,38.6,39.5,38.2c21-0.3,37.9-17.2,38.2-38.2V38.7
	C179.9,17.3,162.6,0,141.2,0z M38.8,15.9c12.6,0,22.9,10.2,22.9,22.8v45.5c-11.4,1.6-22.5,4.8-33,9.3c-4.6,2-8.9,4.6-12.8,7.6V38.7
	C16,26.1,26.2,15.9,38.8,15.9z M61.8,141.3c0,12.7-10.3,22.9-22.9,22.9S15.9,154,15.9,141.3c0,0,0,0,0,0V131
	c0-9.1,7.2-17.7,19.3-23.1c8.5-3.7,17.4-6.3,26.6-7.8L61.8,141.3L61.8,141.3z M141.2,164.1c-12.6,0-22.9-10.2-22.9-22.9V95.8
	c11.4-1.6,22.5-4.8,33-9.3c4.6-2,8.9-4.6,12.8-7.6v62.4C164,153.9,153.8,164.1,141.2,164.1L141.2,164.1z M144.8,72
	c-8.5,3.7-17.4,6.3-26.6,7.8V38.7c0-12.7,10.3-22.9,22.9-22.9c12.7,0,22.9,10.3,22.9,22.9c0,0,0,0,0,0V49
	C164.1,58.1,156.9,66.7,144.8,72z"/>
</svg>
